<svg width="286" height="103" viewBox="0 0 286 103" fill="none" xmlns="http://www.w3.org/2000/svg">
  <g>
    <g>
      <path
        d="M67.3037 97.1293C67.1897 99.8516 64.9496 102 62.2253 102H14.7741C12.0499 102 9.80971 99.8516 9.69573 97.1293L6.30708 25.5941H70.6924L67.3037 97.1293ZM27.7657 43.3622C27.7657 42.2223 26.8415 41.2978 25.7011 41.2978H22.399C21.2594 41.2978 20.3344 42.2221 20.3344 43.3622V84.2319C20.3344 85.372 21.2587 86.2963 22.399 86.2963H25.7011C26.841 86.2963 27.7657 85.3725 27.7657 84.2319V43.3622ZM42.2151 43.3622C42.2151 42.2223 41.2909 41.2978 40.1508 41.2978H36.8487C35.7091 41.2978 34.7843 42.2221 34.7843 43.3622V84.2319C34.7843 85.372 35.7083 86.2963 36.8487 86.2963H40.1508C41.2906 86.2963 42.2151 85.3725 42.2151 84.2319V43.3622ZM56.665 43.3622C56.665 42.2223 55.7408 41.2978 54.6007 41.2978H51.2983C50.1585 41.2978 49.234 42.2221 49.234 43.3622V84.2319C49.234 85.372 50.1582 86.2963 51.2983 86.2963H54.6007C55.7405 86.2963 56.665 85.3725 56.665 84.2319V43.3622Z"
        fill="#E6E6E6" />
      <path
        d="M4.05085 6.20301H25.9417V2.06444C25.9417 1.47671 26.4181 1 27.0061 1H49.9938C50.5815 1 51.058 1.47671 51.058 2.06444V6.20277H72.9491C74.7108 6.20277 76.1387 7.63092 76.1387 9.39262V19.4132H0.861237V9.39287C0.861237 7.63117 2.28915 6.20301 4.05085 6.20301Z"
        fill="#E6E6E6" />
    </g>
    <path
      d="M176.431 17.8949C176.216 17.0166 175.876 16.246 175.412 15.5831C174.948 14.9036 174.368 14.3319 173.672 13.8679C172.993 13.3873 172.197 13.031 171.286 12.799C170.391 12.5504 169.405 12.4261 168.328 12.4261C166.007 12.4261 164.027 12.9813 162.386 14.0916C160.762 15.2019 159.52 16.8011 158.658 18.8892C157.813 20.9773 157.39 23.4962 157.39 26.446C157.39 29.429 157.796 31.9811 158.608 34.1023C159.42 36.2235 160.63 37.8475 162.237 38.9744C163.845 40.1013 165.842 40.6648 168.228 40.6648C170.333 40.6648 172.081 40.3582 173.473 39.745C174.882 39.1319 175.934 38.2618 176.63 37.1349C177.326 36.008 177.674 34.6823 177.674 33.1577L180.06 33.4062H168.427V23.5625H190.998V30.6222C190.998 35.2623 190.012 39.2313 188.04 42.5291C186.084 45.8104 183.383 48.3293 179.936 50.0859C176.506 51.826 172.57 52.696 168.129 52.696C163.174 52.696 158.823 51.6437 155.078 49.5391C151.333 47.4344 148.408 44.4349 146.303 40.5405C144.215 36.6461 143.171 32.0142 143.171 26.6449C143.171 22.4356 143.809 18.7069 145.085 15.4588C146.378 12.2107 148.168 9.46804 150.455 7.23082C152.742 4.97703 155.385 3.27841 158.384 2.13494C161.384 0.974903 164.599 0.394884 168.029 0.394884C171.045 0.394884 173.846 0.825756 176.431 1.6875C179.033 2.53267 181.328 3.74242 183.317 5.31676C185.322 6.87452 186.938 8.7223 188.164 10.8601C189.39 12.9979 190.136 15.3428 190.401 17.8949H176.431ZM216.036 52.696C211.893 52.696 208.347 51.8757 205.397 50.2351C202.447 48.5779 200.185 46.2744 198.611 43.3246C197.036 40.3582 196.249 36.9195 196.249 33.0085C196.249 29.0975 197.036 25.6671 198.611 22.7173C200.185 19.7509 202.447 17.4474 205.397 15.8068C208.347 14.1496 211.893 13.321 216.036 13.321C220.179 13.321 223.726 14.1496 226.675 15.8068C229.625 17.4474 231.887 19.7509 233.462 22.7173C235.036 25.6671 235.823 29.0975 235.823 33.0085C235.823 36.9195 235.036 40.3582 233.462 43.3246C231.887 46.2744 229.625 48.5779 226.675 50.2351C223.726 51.8757 220.179 52.696 216.036 52.696ZM216.136 42.554C217.296 42.554 218.298 42.1645 219.143 41.3857C219.989 40.6068 220.643 39.4964 221.107 38.0547C221.571 36.6129 221.803 34.8977 221.803 32.9091C221.803 30.9039 221.571 29.1887 221.107 27.7635C220.643 26.3217 219.989 25.2114 219.143 24.4325C218.298 23.6536 217.296 23.2642 216.136 23.2642C214.909 23.2642 213.857 23.6536 212.979 24.4325C212.1 25.2114 211.429 26.3217 210.965 27.7635C210.501 29.1887 210.269 30.9039 210.269 32.9091C210.269 34.8977 210.501 36.6129 210.965 38.0547C211.429 39.4964 212.1 40.6068 212.979 41.3857C213.857 42.1645 214.909 42.554 216.136 42.554ZM90.6744 62.2273V51.0909H134.922V62.2273H119.609V102H105.987V62.2273H90.6744ZM136.357 102V63.8182H149.681V71.0767H150.079C150.775 68.392 151.877 66.4283 153.385 65.1854C154.909 63.9425 156.691 63.321 158.729 63.321C159.326 63.321 159.914 63.3707 160.494 63.4702C161.091 63.553 161.662 63.6773 162.209 63.843V75.5511C161.53 75.3191 160.693 75.1451 159.699 75.0291C158.704 74.9131 157.851 74.8551 157.138 74.8551C155.796 74.8551 154.586 75.1617 153.509 75.7749C152.448 76.3714 151.612 77.2166 150.998 78.3104C150.385 79.3875 150.079 80.6553 150.079 82.1136V102H136.357ZM175.57 102.597C173.134 102.597 170.98 102.199 169.107 101.403C167.251 100.591 165.793 99.3651 164.732 97.7244C163.672 96.0838 163.142 93.9957 163.142 91.4602C163.142 89.3722 163.498 87.5907 164.21 86.1158C164.923 84.6243 165.917 83.4062 167.193 82.4616C168.469 81.517 169.953 80.7962 171.643 80.299C173.35 79.8018 175.189 79.4787 177.161 79.3295C179.299 79.1638 181.014 78.965 182.307 78.733C183.616 78.4844 184.561 78.1446 185.141 77.7138C185.721 77.2663 186.011 76.678 186.011 75.9489V75.8494C186.011 74.8551 185.63 74.0928 184.867 73.5625C184.105 73.0322 183.127 72.767 181.934 72.767C180.625 72.767 179.556 73.0571 178.727 73.6371C177.915 74.2005 177.427 75.0705 177.261 76.2472H164.633C164.799 73.9271 165.536 71.7893 166.845 69.8338C168.171 67.8617 170.102 66.2874 172.637 65.1108C175.173 63.9176 178.338 63.321 182.133 63.321C184.867 63.321 187.32 63.6442 189.491 64.2905C191.662 64.9202 193.51 65.8068 195.034 66.9503C196.559 68.0772 197.719 69.4029 198.514 70.9276C199.326 72.4356 199.732 74.0762 199.732 75.8494V102H186.906V96.6307H186.607C185.845 98.0559 184.917 99.2076 183.823 100.086C182.746 100.964 181.512 101.602 180.119 102C178.744 102.398 177.228 102.597 175.57 102.597ZM180.045 93.946C181.089 93.946 182.067 93.7306 182.978 93.2997C183.906 92.8688 184.66 92.2474 185.24 91.4354C185.82 90.6233 186.11 89.6373 186.11 88.4773V85.2955C185.746 85.4446 185.356 85.5855 184.942 85.718C184.544 85.8506 184.113 85.9749 183.649 86.0909C183.202 86.2069 182.721 86.3146 182.208 86.4141C181.71 86.5135 181.188 86.6046 180.642 86.6875C179.581 86.8532 178.711 87.1267 178.031 87.5078C177.369 87.8724 176.871 88.3281 176.54 88.875C176.225 89.4053 176.068 90.0019 176.068 90.6648C176.068 91.7254 176.441 92.5374 177.186 93.1009C177.932 93.6643 178.885 93.946 180.045 93.946ZM241.189 76.2472H228.561C228.495 75.4683 228.222 74.7971 227.741 74.2337C227.261 73.6702 226.639 73.2393 225.877 72.9411C225.131 72.6262 224.302 72.4688 223.391 72.4688C222.214 72.4688 221.203 72.6842 220.358 73.1151C219.513 73.5459 219.099 74.1591 219.115 74.9545C219.099 75.518 219.339 76.04 219.836 76.5206C220.35 77.0012 221.336 77.3741 222.794 77.6392L230.55 79.0312C234.461 79.7438 237.369 80.9453 239.275 82.6357C241.198 84.3094 242.167 86.5549 242.184 89.3722C242.167 92.09 241.355 94.4515 239.748 96.4567C238.157 98.4453 235.977 99.9865 233.21 101.08C230.459 102.157 227.319 102.696 223.789 102.696C217.955 102.696 213.39 101.503 210.092 99.1165C206.811 96.7301 204.98 93.5814 204.598 89.6705H218.221C218.403 90.8802 218.999 91.8165 220.01 92.4794C221.038 93.1257 222.33 93.4489 223.888 93.4489C225.148 93.4489 226.183 93.2334 226.995 92.8026C227.824 92.3717 228.247 91.7585 228.263 90.9631C228.247 90.2339 227.882 89.6539 227.169 89.223C226.473 88.7921 225.38 88.4441 223.888 88.179L217.127 86.9858C213.232 86.3063 210.316 85.0137 208.377 83.108C206.438 81.2022 205.477 78.7495 205.493 75.75C205.477 73.0985 206.173 70.853 207.581 69.0135C209.007 67.1574 211.037 65.7488 213.672 64.7876C216.323 63.8099 219.463 63.321 223.093 63.321C228.611 63.321 232.961 64.4645 236.143 66.7514C239.342 69.0384 241.024 72.2036 241.189 76.2472ZM261.163 80.5227V102H247.441V51.0909H260.665V71.0767H261.063C261.925 68.6406 263.358 66.7431 265.364 65.3842C267.369 64.0088 269.78 63.321 272.597 63.321C275.299 63.321 277.643 63.9342 279.632 65.1605C281.637 66.3868 283.187 68.0772 284.281 70.2315C285.391 72.3859 285.938 74.8551 285.921 77.6392V102H272.2V80.5227C272.216 78.6335 271.744 77.1503 270.783 76.0732C269.838 74.996 268.487 74.4574 266.731 74.4574C265.621 74.4574 264.643 74.706 263.798 75.2031C262.969 75.6837 262.323 76.3797 261.859 77.2912C261.411 78.1861 261.179 79.2633 261.163 80.5227Z"
      fill="#E6E6E6" />
  </g>
</svg>